<svg id="Layer_2" data-name="Layer 2" xmlns="http://www.w3.org/2000/svg" viewBox="0 0 600 600"><title>xiv</title><g id="Layer_2-2" data-name="Layer 2"><path d="M536,60S399.7,227.2,425.3,277.8c24.3,23.7,90.3-26.3,90.3-26.3-31.5,83.5-99,151.3-170.8,201.6-28.2,44-76.4,68.4-128.1,69.7A152.8,152.8,0,0,1,64,370c0.4-49.3,24.3-97.4,65.6-125.3C181,173.1,260.6,92.6,345.2,60c0,0-43.6,50.6-32,109.5,34.4,15.7,112.1-67.9,199.1-104.4C510.2,64.1,536,60,536,60ZM216.8,262.4A107.6,107.6,0,1,0,324.4,370,107.6,107.6,0,0,0,216.8,262.4ZM463.3,121.2S349.4,223.5,297,200c-21.6-8.2-13.9-67.7-13.9-67.7-33.9,24.4-66.9,52.1-90.4,87,7.9-1.7,16.1-1.7,24.1-1.9A152.8,152.8,0,0,1,369.6,370a135.7,135.7,0,0,1-2.5,27c37.6-22.1,67.4-56.5,92.4-91.9-53.8,25-70.1-11.5-70.1-11.5C371,231.7,463.3,121.2,463.3,121.2Z"/></g></svg>